<?xml version="1.0" encoding="UTF-8" standalone="no"?><!DOCTYPE svg PUBLIC "-//W3C//DTD SVG 1.1//EN" "http://www.w3.org/Graphics/SVG/1.1/DTD/svg11.dtd"><svg width="100%" height="100%" viewBox="0 0 2048 2048" version="1.1" xmlns="http://www.w3.org/2000/svg" xmlns:xlink="http://www.w3.org/1999/xlink" xml:space="preserve" xmlns:serif="http://www.serif.com/" style="fill-rule:evenodd;clip-rule:evenodd;stroke-linejoin:round;stroke-miterlimit:2;"><rect id="Artboard1" x="0" y="0" width="2048" height="2048" style="fill:none;"/><clipPath id="_clip1"><rect x="0" y="0" width="2048" height="2048"/></clipPath><g clip-path="url(#_clip1)"><path d="M1948,562l-0,924c-0,254.985 -207.015,462 -462,462l-924,-0c-254.985,-0 -462,-207.015 -462,-462l-0,-924c-0,-254.985 207.015,-462 462,-462l924,-0c254.985,-0 462,207.015 462,462Z" style="fill:#f76305;"/><g><path d="M1449.35,1197.29l425.354,0l-850.708,850.708l-850.708,-850.708l425.354,0l0,0l-425.354,-672.735l850.708,-524.557l850.708,524.557l-425.354,672.735l-0,0Z" style="fill:#121594;"/><path d="M1355.91,1267.36l331.915,-0l-663.829,575.838l-663.829,-575.838l331.915,-0l-0,-0l-331.915,-672.142l663.829,-409.325l663.829,409.325l-331.915,672.142l0,-0Z" style="fill:#e29719;"/></g></g></svg>